<svg width="104" height="40" viewBox="0 0 104 40" fill="none" xmlns="http://www.w3.org/2000/svg">
<rect x="10.4065" y="4.7478" width="6.23635" height="32.0023" rx="3.11817" fill="black"/>
<path d="M18.9441 7.09985C18.143 6.32888 19.0348 5.02887 20.0425 5.49876C20.142 5.54517 20.233 5.60789 20.3118 5.68434L23.6021 8.87638C27.3935 12.5546 26.5284 18.8549 21.8859 21.3751L19.4553 22.6946C17.924 23.5259 16.0316 23.2766 14.7678 22.077C12.8025 20.2117 13.2081 16.9702 15.6783 15.8564C16.4042 15.5291 17.1281 15.2268 17.7835 14.9938C18.9362 14.5839 20.3896 14.2063 21.7076 13.9025C23.1746 13.5645 23.7308 11.7063 22.6461 10.6624L18.9441 7.09985Z" fill="#7B7B7B"/>
<path d="M25.5852 37V23.9091H30.0085C31.0313 23.9091 31.8707 24.0838 32.527 24.4332C33.1832 24.7784 33.669 25.2536 33.9844 25.8587C34.2997 26.4638 34.4574 27.152 34.4574 27.9233C34.4574 28.6946 34.2997 29.3786 33.9844 29.9751C33.669 30.5717 33.1854 31.0405 32.5334 31.3814C31.8814 31.718 31.0483 31.8864 30.0341 31.8864H26.4545V30.4545H29.983C30.6818 30.4545 31.2443 30.3523 31.6705 30.1477C32.1009 29.9432 32.4119 29.6534 32.6037 29.2784C32.7997 28.8991 32.8977 28.4474 32.8977 27.9233C32.8977 27.3991 32.7997 26.9411 32.6037 26.549C32.4077 26.157 32.0945 25.8544 31.6641 25.6413C31.2337 25.424 30.6648 25.3153 29.9574 25.3153H27.1705V37H25.5852ZM31.7472 31.1193L34.9688 37H33.1278L29.9574 31.1193H31.7472ZM40.4841 23.9091V37H38.8989V23.9091H40.4841ZM44.7467 25.3153V23.9091H54.5648V25.3153H50.4484V37H48.8631V25.3153H44.7467ZM58.8114 37V23.9091H66.712V25.3153H60.3966V29.7386H66.3029V31.1449H60.3966V35.5938H66.8142V37H58.8114ZM81.9033 28H80.3181C80.2243 27.544 80.0603 27.1435 79.8259 26.7983C79.5958 26.4531 79.3145 26.1634 78.9821 25.929C78.654 25.6903 78.2897 25.5114 77.8891 25.392C77.4885 25.2727 77.0709 25.2131 76.6363 25.2131C75.8436 25.2131 75.1256 25.4134 74.4821 25.8139C73.8429 26.2145 73.3337 26.8047 72.9544 27.5845C72.5794 28.3643 72.3919 29.321 72.3919 30.4545C72.3919 31.5881 72.5794 32.5447 72.9544 33.3246C73.3337 34.1044 73.8429 34.6946 74.4821 35.0952C75.1256 35.4957 75.8436 35.696 76.6363 35.696C77.0709 35.696 77.4885 35.6364 77.8891 35.517C78.2897 35.3977 78.654 35.2209 78.9821 34.9865C79.3145 34.7479 79.5958 34.456 79.8259 34.1108C80.0603 33.7614 80.2243 33.3608 80.3181 32.9091H81.9033C81.784 33.5781 81.5667 34.1768 81.2513 34.7053C80.936 35.2337 80.5439 35.6832 80.0752 36.054C79.6064 36.4205 79.0802 36.6996 78.4963 36.8913C77.9168 37.0831 77.2968 37.179 76.6363 37.179C75.5198 37.179 74.5269 36.9062 73.6576 36.3608C72.7882 35.8153 72.1043 35.0398 71.6057 34.0341C71.1071 33.0284 70.8578 31.8352 70.8578 30.4545C70.8578 29.0739 71.1071 27.8807 71.6057 26.875C72.1043 25.8693 72.7882 25.0938 73.6576 24.5483C74.5269 24.0028 75.5198 23.7301 76.6363 23.7301C77.2968 23.7301 77.9168 23.826 78.4963 24.0178C79.0802 24.2095 79.6064 24.4908 80.0752 24.8615C80.5439 25.228 80.936 25.6754 81.2513 26.2038C81.5667 26.728 81.784 27.3267 81.9033 28ZM86.2649 37V23.9091H87.8501V29.7386H94.8303V23.9091H96.4155V37H94.8303V31.1449H87.8501V37H86.2649Z" fill="black"/>
</svg>
